<?xml version="1.0" standalone="no"?>
<!DOCTYPE svg PUBLIC "-//W3C//DTD SVG 20010904//EN"
 "http://www.w3.org/TR/2001/REC-SVG-20010904/DTD/svg10.dtd">
<svg version="1.0" xmlns="http://www.w3.org/2000/svg"
 width="2048.000000pt" height="2048.000000pt" viewBox="0 0 2048.000000 2048.000000"
 preserveAspectRatio="xMidYMid meet">
<metadata>
Created by potrace 1.14, written by Peter Selinger 2001-2017
</metadata>
<g transform="translate(0.000000,2048.000000) scale(0.100000,-0.100000)"
fill="#000000" stroke="none">
<path d="M17237 18634 c-1 -1 -56 -4 -122 -8 -66 -3 -138 -8 -160 -11 -70 -9
-209 -35 -241 -46 -17 -5 -40 -11 -50 -14 -162 -33 -472 -195 -645 -335 -208
-169 -464 -436 -623 -649 -22 -31 -44 -58 -47 -61 -11 -9 -148 -197 -256 -352
-59 -84 -683 -1018 -1385 -2073 l-1277 -1920 -103 2 c-86 2 -105 5 -115 20 -7
10 -46 63 -86 118 -40 55 -141 192 -223 305 -82 113 -225 309 -318 435 l-168
230 -2572 0 -2571 -1 -3 -117 c-3 -115 -2 -119 25 -156 25 -35 161 -206 215
-270 11 -13 36 -44 55 -70 20 -25 38 -48 42 -51 3 -3 131 -162 284 -353 153
-191 286 -358 296 -370 11 -12 132 -163 269 -335 138 -172 262 -326 275 -342
l25 -29 1569 -4 c862 -1 1577 -6 1588 -9 11 -3 56 -11 99 -18 179 -27 457
-122 578 -197 21 -13 40 -23 43 -23 10 0 125 -80 185 -127 83 -67 475 -458
543 -543 113 -141 195 -285 263 -461 36 -96 88 -289 99 -369 4 -25 8 -56 10
-70 13 -78 18 -248 19 -605 0 -508 -1 -517 -60 -815 -13 -66 -88 -269 -132
-357 -106 -214 -184 -315 -457 -587 -253 -253 -254 -254 -363 -330 -119 -83
-219 -137 -387 -205 -81 -34 -274 -81 -390 -97 -27 -3 -59 -9 -70 -12 -11 -2
-892 -6 -1958 -7 -1234 -1 -1941 -5 -1945 -11 -4 -6 -83 -109 -176 -230 -175
-225 -273 -353 -446 -579 l-100 -131 -1 -1209 c0 -666 -5 -1241 -9 -1280 -4
-38 -11 -101 -14 -139 -24 -262 -110 -627 -191 -811 -7 -16 -26 -59 -41 -95
-57 -130 -196 -360 -269 -444 -14 -16 -25 -32 -25 -36 0 -4 26 -27 58 -51 31
-24 59 -46 62 -49 32 -32 239 -155 352 -208 146 -70 360 -143 493 -168 22 -5
42 -9 45 -9 42 -11 127 -24 205 -32 91 -10 470 -10 560 0 298 34 605 152 831
321 23 17 54 40 70 51 15 11 32 25 38 30 6 6 45 39 86 75 101 88 227 214 340
340 267 297 510 615 1034 1352 182 255 351 492 377 528 26 36 164 229 307 430
143 201 264 370 269 375 4 6 17 23 27 40 11 16 23 34 28 40 5 5 104 143 219
305 116 162 217 304 225 315 8 11 81 113 162 227 81 113 243 341 360 505 l214
299 104 -1 c57 -1 105 -3 107 -6 7 -8 242 -316 301 -394 34 -44 67 -86 74 -95
6 -8 167 -216 355 -462 189 -246 354 -459 366 -475 68 -88 354 -460 405 -528
34 -44 63 -82 66 -85 3 -3 25 -32 50 -65 25 -33 51 -66 57 -75 15 -18 132
-171 273 -354 58 -76 112 -146 120 -156 8 -10 78 -100 155 -201 77 -100 174
-226 215 -280 41 -54 109 -142 150 -196 185 -243 660 -836 700 -873 3 -3 39
-43 80 -90 240 -273 478 -496 655 -615 33 -22 62 -42 65 -45 12 -12 73 -45
165 -89 247 -120 443 -158 805 -159 195 0 356 14 494 44 39 8 82 17 96 20 126
25 375 120 520 197 92 49 220 125 230 137 3 3 21 17 40 30 88 60 209 168 315
281 271 290 459 675 521 1069 3 19 7 46 10 60 20 119 23 400 4 525 -18 122
-20 135 -36 205 -60 264 -185 552 -346 798 -50 77 -139 204 -148 212 -3 3 -32
39 -65 80 -32 41 -62 77 -65 80 -3 3 -48 57 -100 120 -52 63 -99 120 -105 126
-10 11 -20 23 -144 174 -35 41 -79 95 -100 120 -21 25 -94 113 -163 195 -68
83 -133 161 -143 174 -11 13 -25 28 -30 35 -6 6 -64 76 -130 156 -66 80 -130
156 -142 170 -11 14 -69 84 -128 155 -59 72 -128 154 -153 183 -25 29 -54 65
-66 80 -11 15 -23 29 -26 32 -3 3 -49 57 -100 120 -52 63 -97 117 -100 120 -4
3 -37 43 -76 90 -103 127 -108 132 -124 150 -8 9 -44 52 -80 95 -76 93 -79 97
-162 195 -34 42 -79 95 -98 119 -19 24 -40 48 -45 55 -11 12 -345 413 -404
485 -20 24 -46 56 -58 70 -57 67 -1123 1351 -1142 1374 -13 17 -6 29 71 122
21 26 709 890 808 1015 41 52 83 104 92 115 20 25 712 893 788 990 30 38 62
79 72 90 17 21 291 364 343 430 17 21 192 242 390 490 198 248 374 469 390
490 17 21 66 84 111 139 45 56 190 238 323 406 134 168 256 321 271 340 239
298 318 407 419 579 166 281 277 586 317 871 10 73 11 396 1 487 -31 300 -149
629 -324 902 -150 234 -407 485 -653 638 -271 167 -607 286 -925 327 -62 8
-353 25 -358 20z"/>
<path d="M3109 18626 c-2 -2 -38 -6 -79 -10 -306 -26 -586 -96 -840 -208 -55
-24 -132 -63 -225 -112 -11 -6 -58 -36 -105 -67 -172 -113 -361 -289 -488
-456 -63 -84 -186 -273 -176 -273 3 0 -3 -12 -13 -27 -92 -136 -215 -516 -259
-798 -38 -246 -37 -1 -38 -6300 0 -5375 2 -6138 18 -6250 3 -16 7 -52 11 -80
10 -91 14 -119 40 -245 77 -385 221 -718 428 -990 67 -87 222 -252 292 -310
184 -151 410 -281 639 -365 87 -32 318 -96 393 -109 244 -43 347 -51 638 -51
215 0 351 6 425 20 14 2 41 7 60 9 82 10 215 39 311 66 611 175 1058 569 1293
1140 15 36 33 79 41 95 12 27 43 128 81 260 17 61 50 205 59 263 9 53 10 67
24 177 6 50 14 110 17 135 4 25 9 889 11 1920 2 1031 6 1876 8 1879 3 2 1104
5 2447 6 2692 2 2496 -3 2758 63 590 149 1026 576 1196 1172 13 47 27 99 30
115 2 17 7 37 9 45 9 33 18 90 31 215 16 152 6 409 -22 580 -9 57 -8 51 -17
90 -4 17 -9 39 -12 50 -12 56 -48 173 -76 242 -173 436 -500 764 -929 931 -76
30 -196 68 -240 77 -139 29 -289 47 -415 51 -82 2 -1188 4 -2458 4 l-2307 0 2
1647 3 1647 2730 2 c1502 1 2750 5 2775 8 25 4 59 8 75 11 233 32 510 131 695
250 387 248 648 616 759 1074 29 115 32 134 46 231 14 101 21 377 11 472 -14
134 -20 175 -42 278 -133 613 -520 1085 -1069 1302 -132 52 -229 79 -420 115
-39 7 -8118 17 -8126 9z"/>
</g>
</svg>
